<svg width="572" height="541" viewBox="0 0 572 541" fill="none" xmlns="http://www.w3.org/2000/svg">
<path d="M23.5 519V520.5L14 500L8 485L5.5 477L3 465L2 459L1 450.5V435.5L1.5 423L5 403.5L10.5 383.5L17 369L22.5 357.5L28 348.5L32.5 341.5L41 330.5L48 321.5L60.5 309L71.5 298.5L95 277.5L126.5 251.5L165 220L193.5 196.5L228.5 167.5L254.5 146.5L279 126.5L311 100L337.5 78.5L364 57L398 30.5L413 20L424.5 13L431 10L438.5 7L445 5L461 1.5L467 1H485L493 2L501.5 3L513.5 6L532.5 15L547.5 26.5L557.5 38.5L562.5 46.5L567.5 58L570.5 70.5L571.5 77.5V85.5V341.5L570.5 345.5L567.5 353.5L564.5 361L561.5 366.5L557.5 373L550.5 381.5L545.5 386.5L539.5 391.5L530 397.5L519.5 403L513 405.5L506.5 407.5L496 409.5L484 411L474 411.5H469L480.5 396.5L482.5 393L484.5 389L485.5 385.5L486 380L485 372.5L482 366L477.5 359L466 348L482.5 330L498 311L506.5 299L515.5 285L523 271L528.5 259.5L533 249L537.5 237.5L540 230L542 224.5L543 219L543.5 214.5L543 210.5L541.5 206L538.5 200L535 195L531.5 191.5L525.5 186.781V165V146.5L525 139L523.5 129.5L522.5 126.5L520 121L517.5 115.5L513 109L508.5 103.5L501.5 96.5L494.5 90.5L487.5 86L482.5 83.5L476.5 81L468 79L460 78H454H445.5L437 79L428.5 81L421 83.5L412.5 87.5L404.5 91.5L396 96.5L382 105.5L342 133.5L314 154L284.5 176L264.5 191L239 210L220 224L202.5 237L189 247L168.5 262.5L153.5 274L137 286L125 295.5L114 303.5L99 315L81 328.5L68.5 339.5L55 353.5L44.5 366.5L38 376.5L32 387.5L29.5 393L27 399.5L24.5 406L23 411L20 422L18.5 431L16.5 445L16 466L17 487L19 499L21.5 510L22.5 514L23 517L23.5 519Z" fill="#1C1C1C"/>
<path d="M118 465H130.5V469V473L130 476V478V481V483L130.5 485L131 487L132 489L133.5 491.5L135.5 494L138 496.5L133 504L130 508.5L127 513.5L126 515.5L125 517.5L124 519.5L123 522.5L122 526L121 530L120.5 533.5L120 537.5L119.5 540H114.5H110L108 539.5L106.5 538.5L104.5 536L103 532L101.5 528L101 522.5V520V516.5L102 511L103 508L104.5 502L105.5 495L106 485L106.5 477V475V472.5L107.5 470L108 468.5L109 466.5L110.5 465.5L118 465Z" fill="#1C1C1C"/>
<path d="M137.5 490.5L139 491.5H139.5H141L142 491L146.5 489L153 486L155 485L157 484L158.5 483L163.5 481L181 473.5L190 469.5L195 467.5L205.5 463.5L218.5 459L231 454.5L243.5 450L250 448L256 446L261.5 444.5L265 443L271 440.5L273.5 439.5L276 438L279 436L282.5 433.5L291.5 427.5L293.5 426.021L297 424L299.5 422L302 420L304 418.5L305.5 417L306 415.5V415L305.5 414L303.5 411.5L300.5 408.5L296.5 405L291 400.5L287.5 398L282 394.5L279 392.5L275 390.5L272 389L269 388L268 387.5H267L265.5 388.5L260.5 392.5L254 398.5L249 403.5L245 407L244 408L243 408.5L241 409.5L240 410L229.5 413L219 416.5L214 418.5L211 420L206 422.5L194.5 429.5L186.5 435.5L176 443.5L166 450L157 455L145 461L136 466L134.5 467L133.5 468L133 470L132.5 475L133 479L133.5 482L135 486L136 488.5L137.5 490.5Z" fill="#1C1C1C"/>
<path d="M312.5 409L315.5 410.5H316L317 410L318.5 409L336 392.5L343 385.5L350.5 377.5H351L379.5 384L398 387L414 389L423 390.5L417 397L411 403.5L405 410.5L402.5 414L399.5 419L395.5 426L392 433L383 449.5L371.5 467.5L369 472L368.5 473.5V474.5L369 475.5L370 477L371.5 478.5L374 480L376.5 481L379 482L381 482.5H384.5H386.5L389 481.5L391 479.5L393.5 476.5L396.5 472L401 466.5L413 453.5L429.5 436.5L447 418.5L464 399.5L472 387L473 384L473.5 382V380.5L473 378.5L472 376L469 372L465 367.5L461 364L456.5 360.5L452.5 357.5L447.5 354.5L441 350.5L433.5 346L415 337L403.5 332.5L389.5 328L378 324.5L364 320.5L347 314.5L328.5 306L323.5 303.5L321.5 302L321 302.5L318.5 305L316.5 307L313.5 310.5L309.5 315.5L307 318.5L304.5 322.5L301.5 327L298.5 331.5L296 336L293 341.5L288 350.5L278 368.5L273 377L271 380L271.5 380.5L273 382L274.5 382.5L276.5 383.5L280.5 385L284.5 387.5L291.5 392L302.5 400L307.5 404.5L312.5 409Z" fill="#1C1C1C"/>
<path d="M466 249L472.5 259L473 259.5L475 258L477 256.5L479.5 255L482.5 252.5L485.5 250L488 247.5L490 245L495.5 239L498.5 235L500.5 230L501.5 226.5L502 220.5V212.5V211L503 208.5L504 207L505.5 205.5L509 202L511 200.5L512 199.5H513.5L516 200L519 201.5L524.5 206L528.5 210.5L531 215L530 218L526 225L522.5 230.5L511.5 249.5L505 261L497 273.5L488.5 283.5L482 290.5L477 295L473 297.5L469 299H467.5L464.5 298L459 294.5L453.5 289.5L446 282L431 265.5L429 264.5L427 268L423.5 273.5L412.5 288.5L404 299.5L396.5 308L387 318.5L369 313.5L351 307.5L339.5 302.5L330.5 298.5L326.5 296.5L326 295.5L336.5 268.5L340.5 259L343.5 251.5L346 244.5L349 237.5L352 230L353.5 226L354.5 224L355 223L354.5 222H354H353H352L351 222.5L349 223L344.5 223.5L337.5 224.5L328.5 226L321 226.5L316.5 227L313 227.5L311 228L309.5 228.5L308.5 229L307.5 229.5L307 230L305.5 232.5L302.5 238L300 243L297.5 247.5L294.5 254.5L291.5 261L289 267L286.5 273L285.5 277L284 281L283 286V291L283.5 294L284 296L284.5 297.5L285.5 300L287 304.5L287.5 307V308.5L287 310L285 313L282 317.5L279 321L278 322H277L275 321.5L270.5 320L265 317.5L263.5 316.5L262 315.5L261 314.5L260 313.5L259 311.5L258.5 310.5V309V308V306L259 302L261.5 292L263.5 284.5L266.5 274L268 268L271 257.5L272.5 252L274.5 245L277 237L279 231L280.5 227L283 220.5L285 216.5L287 212.5L289.5 209L293.5 205L296 203L298 202L303.5 199L307 197L311 195L315 193L320.5 190.5L332 185.5L342.5 181.5L354 178L361.5 176L371 174.5L379.5 173L387.5 172.5L406 172H412L413 170L414 168L414.5 165.5L415.5 159.5L416 152.5L416.5 147.5L417 140L417.5 135L418 130.5L419 127L420.5 122.5L421 121.5L422 120L424 118L426.5 116L430 114L432.5 113L437 112L439 111.5H440.5H441.5H444L448 112L454 112.5L456.5 113L460.5 114L463.5 115L468 117L472.5 119.5L476.5 122.5L479 124.5L482 128L483 130L482.5 131.5L482 132.5L481.5 133L480.5 134L479 135L478.5 136L478 137V138V138.5L478.5 140V142L478 144L477.5 146L477 147.5L476 149.5L475 151H474.5H474L473.5 151.5H473L472 152H472.5L473.5 152.5H474.5L475.5 153L476 154V155V157L476.5 159L477 161.5L477.5 163.5L478 164V165V165.5L477.5 166L476 167L475 167.5L474 168L473 169L472.5 170L472 171V172V173L471 173.5L470 174H469L467.5 174.5L469 175L470 175.5L470.5 176V176.5V177V177.5L469.5 178.5L468.5 179.5L468 180.5L467 182L466.5 184L466 186L465.5 188L465 189L464 190L463 191L462 191.5L461 192H460H459H458H456L452 191L449.5 190.5L446.5 189.5L445 189H443.5H442.5H441.5L441 189.5L440.5 190L440 190.5L439.5 191L439 193V195V197L440.5 200.5L443 205L447.5 212L451.5 218.5L455 224L457 228L457.5 230L459 234.5L461.5 240.5L466 249Z" fill="#1C1C1C"/>
<path d="M354.5 477.5L361.5 471.5H362L365.5 477.5L367.5 480.5L371 483L375 485L376.5 485.5L382 486H387H392L393.5 495L395 500L397.5 504.5L402 510L406.5 514L411 517L415.5 520.5L416.5 521.5L417.5 522.5L418 523L418.5 523.5V524V524.5V525V525.5L418 527L417.5 527.5L416.5 528.5L415.5 529.5L414.5 530.5L413 531.5L412 532H410.5H409H408.5H408L405 531.5L401.5 530.5L396 528.5L385.5 524L377.5 520L372.5 517.5L368 515L363.5 512L360.5 510L354 505.5L346.5 499L342.5 495L341 493V492L342 490L344 487.5L349 482.5L354.5 477.5Z" fill="#1C1C1C"/>
<path d="M23.5 519V520.5L14 500L8 485L5.5 477L3 465L2 459L1 450.5V435.5L1.5 423L5 403.5L10.5 383.5L17 369L22.5 357.5L28 348.5L32.5 341.5L41 330.5L48 321.5L60.5 309L71.5 298.5L95 277.5L126.5 251.5L165 220L193.5 196.5L228.5 167.5L254.5 146.5L279 126.5L311 100L337.5 78.5L364 57L398 30.5L413 20L424.5 13L431 10L438.5 7L445 5L461 1.5L467 1H485L493 2L501.5 3L513.5 6L532.5 15L547.5 26.5L557.5 38.5L562.5 46.5L567.5 58L570.5 70.5L571.5 77.5V85.5V341.5L570.5 345.5L567.5 353.5L564.5 361L561.5 366.5L557.5 373L550.5 381.5L545.5 386.5L539.5 391.5L530 397.5L519.5 403L513 405.5L506.5 407.5L496 409.5L484 411L474 411.5H469L480.5 396.5L482.5 393L484.5 389L485.5 385.5L486 380L485 372.5L482 366L477.5 359L466 348L482.5 330L498 311L506.5 299L515.5 285L523 271L528.5 259.5L533 249L537.5 237.5L540 230L542 224.5L543 219L543.5 214.5L543 210.5L541.5 206L538.5 200L535 195L531.5 191.5L525.5 186.781V165V146.5L525 139L523.5 129.5L522.5 126.5L520 121L517.5 115.5L513 109L508.5 103.5L501.5 96.5L494.5 90.5L487.5 86L482.5 83.5L476.5 81L468 79L460 78H454H445.5L437 79L428.5 81L421 83.5L412.5 87.5L404.5 91.5L396 96.5L382 105.5L342 133.5L314 154L284.5 176L264.5 191L239 210L220 224L202.5 237L189 247L168.5 262.5L153.5 274L137 286L125 295.5L114 303.5L99 315L81 328.5L68.5 339.5L55 353.5L44.5 366.5L38 376.5L32 387.5L29.5 393L27 399.5L24.5 406L23 411L20 422L18.5 431L16.5 445L16 466L17 487L19 499L21.5 510L22.5 514L23 517L23.5 519Z" stroke="#FFD700"/>
<path d="M118 465H130.5V469V473L130 476V478V481V483L130.5 485L131 487L132 489L133.5 491.5L135.5 494L138 496.5L133 504L130 508.5L127 513.5L126 515.5L125 517.5L124 519.5L123 522.5L122 526L121 530L120.5 533.5L120 537.5L119.5 540H114.5H110L108 539.5L106.5 538.5L104.5 536L103 532L101.5 528L101 522.5V520V516.5L102 511L103 508L104.5 502L105.5 495L106 485L106.5 477V475V472.5L107.5 470L108 468.5L109 466.5L110.5 465.5L118 465Z" stroke="#FFD700"/>
<path d="M137.5 490.5L139 491.5H139.5H141L142 491L146.5 489L153 486L155 485L157 484L158.5 483L163.5 481L181 473.5L190 469.5L195 467.5L205.5 463.5L218.5 459L231 454.5L243.5 450L250 448L256 446L261.5 444.5L265 443L271 440.5L273.5 439.5L276 438L279 436L282.5 433.5L291.5 427.5L293.5 426.021L297 424L299.5 422L302 420L304 418.5L305.5 417L306 415.5V415L305.5 414L303.5 411.5L300.5 408.5L296.5 405L291 400.5L287.5 398L282 394.5L279 392.5L275 390.5L272 389L269 388L268 387.5H267L265.5 388.5L260.5 392.5L254 398.5L249 403.5L245 407L244 408L243 408.5L241 409.5L240 410L229.5 413L219 416.5L214 418.5L211 420L206 422.5L194.5 429.5L186.5 435.5L176 443.5L166 450L157 455L145 461L136 466L134.5 467L133.5 468L133 470L132.5 475L133 479L133.5 482L135 486L136 488.5L137.5 490.5Z" stroke="#FFD700"/>
<path d="M312.5 409L315.5 410.5H316L317 410L318.5 409L336 392.5L343 385.5L350.5 377.5H351L379.5 384L398 387L414 389L423 390.5L417 397L411 403.5L405 410.5L402.5 414L399.5 419L395.5 426L392 433L383 449.5L371.5 467.5L369 472L368.5 473.5V474.5L369 475.5L370 477L371.5 478.5L374 480L376.5 481L379 482L381 482.5H384.5H386.5L389 481.5L391 479.5L393.5 476.5L396.5 472L401 466.5L413 453.5L429.5 436.5L447 418.5L464 399.5L472 387L473 384L473.5 382V380.5L473 378.5L472 376L469 372L465 367.5L461 364L456.5 360.5L452.5 357.5L447.5 354.5L441 350.5L433.5 346L415 337L403.5 332.5L389.5 328L378 324.5L364 320.5L347 314.5L328.5 306L323.5 303.5L321.5 302L321 302.5L318.5 305L316.5 307L313.5 310.5L309.5 315.5L307 318.5L304.5 322.5L301.5 327L298.5 331.5L296 336L293 341.5L288 350.5L278 368.5L273 377L271 380L271.5 380.5L273 382L274.5 382.5L276.5 383.5L280.5 385L284.5 387.5L291.5 392L302.5 400L307.5 404.5L312.5 409Z" stroke="#FFD700"/>
<path d="M466 249L472.5 259L473 259.5L475 258L477 256.5L479.5 255L482.5 252.5L485.5 250L488 247.5L490 245L495.5 239L498.5 235L500.5 230L501.5 226.5L502 220.5V212.5V211L503 208.5L504 207L505.5 205.5L509 202L511 200.5L512 199.5H513.5L516 200L519 201.5L524.5 206L528.5 210.5L531 215L530 218L526 225L522.5 230.5L511.5 249.5L505 261L497 273.5L488.5 283.5L482 290.5L477 295L473 297.5L469 299H467.5L464.5 298L459 294.5L453.5 289.5L446 282L431 265.5L429 264.5L427 268L423.5 273.5L412.5 288.5L404 299.5L396.5 308L387 318.5L369 313.5L351 307.5L339.5 302.5L330.5 298.5L326.5 296.5L326 295.5L336.5 268.5L340.5 259L343.5 251.5L346 244.5L349 237.5L352 230L353.5 226L354.5 224L355 223L354.5 222H354H353H352L351 222.5L349 223L344.5 223.5L337.5 224.5L328.5 226L321 226.5L316.5 227L313 227.5L311 228L309.5 228.5L308.5 229L307.5 229.5L307 230L305.5 232.5L302.5 238L300 243L297.5 247.5L294.5 254.5L291.5 261L289 267L286.5 273L285.5 277L284 281L283 286V291L283.5 294L284 296L284.5 297.5L285.5 300L287 304.5L287.5 307V308.5L287 310L285 313L282 317.5L279 321L278 322H277L275 321.5L270.5 320L265 317.5L263.5 316.5L262 315.5L261 314.5L260 313.5L259 311.5L258.5 310.5V309V308V306L259 302L261.5 292L263.5 284.5L266.5 274L268 268L271 257.5L272.5 252L274.5 245L277 237L279 231L280.5 227L283 220.5L285 216.5L287 212.5L289.5 209L293.5 205L296 203L298 202L303.5 199L307 197L311 195L315 193L320.5 190.5L332 185.5L342.5 181.5L354 178L361.5 176L371 174.5L379.5 173L387.5 172.5L406 172H412L413 170L414 168L414.5 165.5L415.5 159.5L416 152.5L416.5 147.5L417 140L417.5 135L418 130.5L419 127L420.5 122.5L421 121.5L422 120L424 118L426.5 116L430 114L432.5 113L437 112L439 111.5H440.5H441.5H444L448 112L454 112.5L456.5 113L460.5 114L463.5 115L468 117L472.5 119.5L476.5 122.5L479 124.5L482 128L483 130L482.5 131.5L482 132.5L481.5 133L480.5 134L479 135L478.5 136L478 137V138V138.5L478.5 140V142L478 144L477.5 146L477 147.5L476 149.5L475 151H474.5H474L473.5 151.5H473L472 152H472.5L473.5 152.5H474.5L475.5 153L476 154V155V157L476.5 159L477 161.5L477.5 163.5L478 164V165V165.5L477.5 166L476 167L475 167.5L474 168L473 169L472.5 170L472 171V172V173L471 173.5L470 174H469L467.5 174.5L469 175L470 175.5L470.5 176V176.5V177V177.5L469.5 178.5L468.5 179.5L468 180.5L467 182L466.5 184L466 186L465.5 188L465 189L464 190L463 191L462 191.5L461 192H460H459H458H456L452 191L449.5 190.5L446.5 189.5L445 189H443.5H442.5H441.5L441 189.5L440.5 190L440 190.5L439.5 191L439 193V195V197L440.5 200.5L443 205L447.5 212L451.5 218.5L455 224L457 228L457.5 230L459 234.5L461.5 240.5L466 249Z" stroke="#FFD700"/>
<path d="M354.5 477.5L361.5 471.5H362L365.5 477.5L367.5 480.5L371 483L375 485L376.5 485.5L382 486H387H392L393.5 495L395 500L397.5 504.5L402 510L406.5 514L411 517L415.5 520.5L416.5 521.5L417.5 522.5L418 523L418.5 523.5V524V524.5V525V525.5L418 527L417.5 527.5L416.5 528.5L415.5 529.5L414.5 530.5L413 531.5L412 532H410.5H409H408.5H408L405 531.5L401.5 530.5L396 528.5L385.5 524L377.5 520L372.5 517.5L368 515L363.5 512L360.5 510L354 505.5L346.5 499L342.5 495L341 493V492L342 490L344 487.5L349 482.5L354.5 477.5Z" stroke="#FFD700"/>
<path d="M118 464.5H130.5V468.5V472.5L130 475.5V477.5V480.5V482.5L130.5 484.5L131 486.5L132 488.5L133.5 491L135.5 493.5L138 496L133 503.5L130 508L127 513L126 515L125 517L124 519L123 522L122 525.5L121 529.5L120.5 533L120 537L119.5 539.5H114.5H110L108 539L106.5 538L104.5 535.5L103 531.5L101.5 527.5L101 522V519.5V516L102 510.5L103 507.5L104.5 501.5L105.5 494.5L106 484.5L106.5 476.5V474.5V472L107.5 469.5L108 468L109 466L110.5 465L118 464.5Z" fill="#FFD700"/>
<path d="M137.5 490L139 491H139.5H141L142 490.5L146.5 488.5L153 485.5L155 484.5L157 483.5L158.5 482.5L163.5 480.5L181 473L190 469L195 467L205.5 463L218.5 458.5L231 454L243.5 449.5L250 447.5L256 445.5L261.5 444L265 442.5L271 440L273.5 439L276 437.5L279 435.5L282.5 433L291.5 427L293.5 425.521L297 423.5L299.5 421.5L302 419.5L304 418L305.5 416.5L306 415V414.5L305.5 413.5L303.5 411L300.5 408L296.5 404.5L291 400L287.5 397.5L282 394L279 392L275 390L272 388.5L269 387.5L268 387H267L265.5 388L260.5 392L254 398L249 403L245 406.5L244 407.5L243 408L241 409L240 409.5L229.5 412.5L219 416L214 418L211 419.5L206 422L194.5 429L186.5 435L176 443L166 449.5L157 454.5L145 460.5L136 465.5L134.5 466.5L133.5 467.5L133 469.5L132.5 474.5L133 478.5L133.5 481.5L135 485.5L136 488L137.5 490Z" fill="#FFD700"/>
<path d="M312.5 408.5L315.5 410H316L317 409.5L318.5 408.5L336 392L343 385L350.5 377H351L379.5 383.5L398 386.5L414 388.5L423 390L417 396.5L411 403L405 410L402.5 413.5L399.5 418.5L395.5 425.5L392 432.5L383 449L371.5 467L369 471.5L368.5 473V474L369 475L370 476.5L371.5 478L374 479.5L376.5 480.5L379 481.5L381 482H384.5H386.5L389 481L391 479L393.5 476L396.5 471.5L401 466L413 453L429.5 436L447 418L464 399L472 386.5L473 383.5L473.5 381.5V380L473 378L472 375.5L469 371.5L465 367L461 363.5L456.5 360L452.5 357L447.5 354L441 350L433.5 345.5L415 336.5L403.5 332L389.5 327.5L378 324L364 320L347 314L328.5 305.5L323.5 303L321.5 301.5L321 302L318.5 304.5L316.5 306.5L313.5 310L309.5 315L307 318L304.5 322L301.5 326.5L298.5 331L296 335.5L293 341L288 350L278 368L273 376.5L271 379.5L271.5 380L273 381.5L274.5 382L276.5 383L280.5 384.5L284.5 387L291.5 391.5L302.5 399.5L307.5 404L312.5 408.5Z" fill="#FFD700"/>
<path d="M466 248.5L472.5 258.5L473 259L475 257.5L477 256L479.5 254.5L482.5 252L485.5 249.5L488 247L490 244.5L495.5 238.5L498.5 234.5L500.5 229.5L501.5 226L502 220V212V210.5L503 208L504 206.5L505.5 205L509 201.5L511 200L512 199H513.5L516 199.5L519 201L524.5 205.5L528.5 210L531 214.5L530 217.5L526 224.5L522.5 230L511.5 249L505 260.5L497 273L488.5 283L482 290L477 294.5L473 297L469 298.5H467.5L464.5 297.5L459 294L453.5 289L446 281.5L431 265L429 264L427 267.5L423.5 273L412.5 288L404 299L396.5 307.5L387 318L369 313L351 307L339.5 302L330.5 298L326.5 296L326 295L336.5 268L340.5 258.5L343.5 251L346 244L349 237L352 229.5L353.5 225.5L354.5 223.5L355 222.5L354.5 221.5H354H353H352L351 222L349 222.5L344.5 223L337.5 224L328.5 225.5L321 226L316.5 226.5L313 227L311 227.5L309.5 228L308.5 228.5L307.5 229L307 229.5L305.5 232L302.5 237.5L300 242.5L297.5 247L294.5 254L291.5 260.5L289 266.5L286.5 272.5L285.5 276.5L284 280.5L283 285.5V290.5L283.5 293.5L284 295.5L284.5 297L285.5 299.5L287 304L287.5 306.5V308L287 309.5L285 312.5L282 317L279 320.5L278 321.5H277L275 321L270.5 319.5L265 317L263.5 316L262 315L261 314L260 313L259 311L258.5 310V308.5V307.5V305.5L259 301.5L261.5 291.5L263.5 284L266.5 273.5L268 267.5L271 257L272.5 251.5L274.5 244.5L277 236.5L279 230.5L280.5 226.5L283 220L285 216L287 212L289.5 208.5L293.5 204.5L296 202.5L298 201.5L303.5 198.5L307 196.5L311 194.5L315 192.5L320.5 190L332 185L342.5 181L354 177.5L361.5 175.5L371 174L379.5 172.5L387.5 172L406 171.5H412L413 169.5L414 167.5L414.5 165L415.5 159L416 152L416.5 147L417 139.5L417.5 134.5L418 130L419 126.5L420.5 122L421 121L422 119.5L424 117.5L426.5 115.5L430 113.5L432.5 112.5L437 111.5L439 111H440.5H441.5H444L448 111.5L454 112L456.5 112.5L460.5 113.5L463.5 114.5L468 116.5L472.5 119L476.5 122L479 124L482 127.5L483 129.5L482.5 131L482 132L481.5 132.5L480.5 133.5L479 134.5L478.5 135.5L478 136.5V137.5V138L478.5 139.5V141.5L478 143.5L477.5 145.5L477 147L476 149L475 150.5H474.5H474L473.5 151H473L472 151.5H472.5L473.5 152H474.5L475.5 152.5L476 153.5V154.5V156.5L476.5 158.5L477 161L477.5 163L478 163.5V164.5V165L477.5 165.5L476 166.5L475 167L474 167.5L473 168.5L472.5 169.5L472 170.5V171.5V172.5L471 173L470 173.5H469L467.5 174L469 174.5L470 175L470.5 175.5V176V176.5V177L469.5 178L468.5 179L468 180L467 181.5L466.5 183.5L466 185.5L465.5 187.5L465 188.5L464 189.5L463 190.5L462 191L461 191.5H460H459H458H456L452 190.5L449.5 190L446.5 189L445 188.5H443.5H442.5H441.5L441 189L440.5 189.5L440 190L439.5 190.5L439 192.5V194.5V196.5L440.5 200L443 204.5L447.5 211.5L451.5 218L455 223.5L457 227.5L457.5 229.5L459 234L461.5 240L466 248.5Z" fill="#FFD700"/>
<path d="M354.5 477L361.5 471H362L365.5 477L367.5 480L371 482.5L375 484.5L376.5 485L382 485.5H387H392L393.5 494.5L395 499.5L397.5 504L402 509.5L406.5 513.5L411 516.5L415.5 520L416.5 521L417.5 522L418 522.5L418.5 523V523.5V524V524.5V525L418 526.5L417.5 527L416.5 528L415.5 529L414.5 530L413 531L412 531.5H410.5H409H408.5H408L405 531L401.5 530L396 528L385.5 523.5L377.5 519.5L372.5 517L368 514.5L363.5 511.5L360.5 509.5L354 505L346.5 498.5L342.5 494.5L341 492.5V491.5L342 489.5L344 487L349 482L354.5 477Z" fill="#FFD700"/>
</svg>
